PathFileType	4	(X/Y/Z)	E:\Qualisys_Data\Carbon_Farble_Plate\Data\Amateur_Runner\S14\T2\S14T2V25_c3d.trc
DataRate	CameraRate	NumFrames	NumMarkers	Units	OrigDataRate	OrigDataStartFrame	OrigNumFrames
200.000000	200.000000	4	39	mm	200.000000	158	317
Frame#	Time	LSHO			RSHO			LICST			RICST			LASIS			LHEEL			RASIS			LTROC			RTROC			SACR			LTH1			LSK4			LTH2			LTH3			RHM5			LSK2			LTH4			RTH1			LTOE			RTH2			RTH3			RTH4			LLEP			RLEP			LSK1			LSK3			RSK1			LHM5			RSK2			LFT1			RSK3			RSK4			LLME			RLME			RTOE			RHEEL			RFT1			RFT2			LFT2			
		X1	Y1	Z1	X2	Y2	Z2	X3	Y3	Z3	X4	Y4	Z4	X5	Y5	Z5	X6	Y6	Z6	X7	Y7	Z7	X8	Y8	Z8	X9	Y9	Z9	X10	Y10	Z10	X11	Y11	Z11	X12	Y12	Z12	X13	Y13	Z13	X14	Y14	Z14	X15	Y15	Z15	X16	Y16	Z16	X17	Y17	Z17	X18	Y18	Z18	X19	Y19	Z19	X20	Y20	Z20	X21	Y21	Z21	X22	Y22	Z22	X23	Y23	Z23	X24	Y24	Z24	X25	Y25	Z25	X26	Y26	Z26	X27	Y27	Z27	X28	Y28	Z28	X29	Y29	Z29	X30	Y30	Z30	X31	Y31	Z31	X32	Y32	Z32	X33	Y33	Z33	X34	Y34	Z34	X35	Y35	Z35	X36	Y36	Z36	X37	Y37	Z37	X38	Y38	Z38	X39	Y39	Z39	

159	0.79	-54.15920257568359	1465.177490234375	-502.0444030761719	-92.10184478759766	1460.332397460938	-214.1245727539062	-110.6955718994141	1009.068481445312	-506.800048828125	-84.212890625	1007.535034179688	-232.9865264892578	-73.96199035644531	953.76806640625	-487.4012145996094	-711.2872924804688	529.8661499023438	-370.049560546875	-59.36746978759766	966.5182495117188	-258.0316162109375	-227.1222839355469	911.5872802734376	-524.766357421875	-183.509521484375	885.859619140625	-189.9598541259766	-235.9906158447266	1013.695251464844	-368.9403076171875	-241.0075378417969	679.5565795898438	-531.2813110351562	-545.3865966796875	548.6052856445312	-469.4878540039062	-310.6092834472656	706.9442138671875	-501.7604064941406	-267.8461608886719	584.5733032226562	-515.1516723632812	278.2345886230469	152.3880767822266	-203.808837890625	-451.9739074707031	566.7605590820312	-498.8372802734375	-340.2107849121094	613.8097534179688	-489.3583679199219	6.944497108459473	707.3839721679688	-197.7340393066406	-782.3823852539062	283.1435546875	-395.8039245605469	-64.83781433105469	675.5040893554688	-182.7170867919922	46.29619598388672	619.5079345703125	-227.3543395996094	-28.3448314666748	583.5004272460938	-207.3114013671875	-345.2454223632812	545.1170654296875	-505.34423828125	27.58820915222168	534.0222778320312	-217.2370758056641	-435.0773010253906	485.7529602050781	-497.6684265136719	-532.8384399414062	468.4659423828125	-474.0208129882812	85.09098052978516	430.4905090332031	-213.0853271484375	-799.9681396484375	357.6091003417969	-450.53662109375	4.952150344848633	400.401123046875	-220.0298919677734	-732.0935668945312	523.62158203125	-340.3167724609375	116.2303466796875	332.2413330078125	-224.2107238769531	40.72970199584961	311.3320922851562	-230.2555847167969	-706.2869873046875	478.4105529785156	-435.154296875	140.9084320068359	151.5373840332031	-245.77587890625	341.1417236328125	215.4550323486328	-249.9674072265625	111.210693359375	100.4654006958008	-307.1379699707031	143.2314758300781	87.18920135498047	-334.5943298339844	124.7660140991211	73.22026062011719	-283.1207885742188	-744.2688598632812	536.9603271484375	-393.6189270019531
160	0.795	-32.07986831665039	1461.699096679688	-501.2886352539062	-70.18306732177734	1456.5146484375	-213.2754516601562	-88.23646545410156	1005.681884765625	-506.6660766601562	-62.40060424804688	1004.674621582031	-232.9149322509766	-51.86787796020508	951.0156860351562	-487.3663940429688	-681.7167358398438	537.402587890625	-369.9205017089844	-37.38982772827148	963.822509765625	-257.8050537109375	-204.1333465576172	907.4447631835938	-525.1320190429688	-161.6443786621094	882.06591796875	-190.1322479248047	-214.0614013671875	1009.773010253906	-369.4921875	-215.5584259033203	675.0083618164062	-531.0256958007812	-517.3030395507812	549.3890380859375	-471.2602844238281	-285.5396423339844	701.4441528320312	-502.54638671875	-241.3997344970703	579.5338134765625	-515.2603149414062	298.3446044921875	149.4135589599609	-204.5350799560547	-423.4002990722656	564.2099609375	-500.994140625	-314.2191772460938	608.114990234375	-490.0532531738281	27.24849510192871	703.8825073242188	-197.1201019287109	-760.32763671875	291.9236145019531	-393.1795654296875	-44.72900009155273	671.9766845703125	-183.3209381103516	66.72359466552734	616.4066772460938	-227.43994140625	-7.854620456695557	580.440673828125	-208.2456665039062	-317.8552551269531	540.5609741210938	-506.8206176757812	48.11985397338867	530.9493408203125	-217.9121551513672	-408.787109375	482.7618408203125	-497.949462890625	-506.79248046875	468.6853942871094	-473.2966918945312	106.0979385375977	426.8299255371094	-214.1287231445312	-776.1422119140625	366.0198364257812	-449.1669616699219	26.03447723388672	396.8735046386719	-220.9468536376953	-704.6318969726562	531.9517822265625	-341.2423095703125	136.9958648681641	328.3914184570312	-225.4385070800781	61.34558486938477	307.504150390625	-231.3436126708984	-679.7543334960938	484.4288635253906	-434.956787109375	161.5891265869141	147.9515533447266	-247.0333557128906	361.3069152832031	212.3993682861328	-250.8016662597656	131.9285888671875	96.5314483642578	-308.7816467285156	164.2753753662109	83.58013153076172	-336.1988830566406	145.8786468505859	69.61710357666016	-284.8079528808594	-716.2449951171875	545.290771484375	-394.5111083984375
161	0.8	-10.03596782684326	1458.392211914062	-500.3440246582031	-48.5465202331543	1452.1884765625	-212.208984375	-65.94237518310547	1002.329895019531	-506.4791259765625	-40.8446159362793	1001.768432617188	-232.4889526367188	-29.27541923522949	947.7965087890624	-486.9218444824219	-653.5504760742188	544.3018798828125	-370.7261047363281	-15.89197444915771	961.376220703125	-257.0845642089844	-181.4246978759766	903.140380859375	-525.97900390625	-139.7977752685547	878.7398681640625	-190.0332336425781	-191.8239440917969	1005.72265625	-369.2641296386719	-189.6310272216797	670.0228881835938	-531.2241821289062	-488.5506286621094	549.8060913085938	-472.481201171875	-260.6177978515625	695.6556396484375	-503.1475219726562	-214.4883880615234	574.2584838867188	-515.7962646484375	317.313232421875	145.0964508056641	-206.3792877197266	-394.3938598632812	561.3356323242188	-502.9985656738281	-287.5477905273438	601.9639892578125	-490.5916748046875	48.5128173828125	700.8638305664062	-196.4018402099609	-737.3453369140625	300.2678833007812	-390.7296752929688	-23.93253326416016	668.959716796875	-184.4905548095703	87.96382141113281	613.5888061523438	-227.5592041015625	12.72348022460938	577.6362915039062	-209.6185150146484	-290.4371337890625	535.3052368164062	-507.7979736328125	68.94905853271484	527.8206787109375	-218.8500061035156	-382.189208984375	479.6008605957031	-498.1534118652344	-480.7481994628906	468.564453125	-473.0247802734375	126.5602416992188	423.0078735351562	-214.9972991943359	-751.7225341796875	375.1223449707031	-447.5493469238281	46.40484237670898	393.5863952636719	-221.9535064697266	-677.093505859375	538.8464965820312	-343.6273193359375	157.1252899169922	324.73095703125	-226.5254364013672	81.2011947631836	303.7800598144531	-232.3697204589844	-652.5071411132812	490.5357360839844	-435.1846923828125	180.5636596679688	143.6334533691406	-248.231689453125	380.5322875976562	208.4327087402344	-251.9961242675781	150.9976501464844	92.77806091308594	-310.1197509765625	183.3946380615234	79.58309173583984	-337.8387451171875	164.7042999267578	65.51988983154297	-286.2071533203125	-687.9196166992188	552.5313720703125	-395.0496520996094
162	0.805	11.71899509429932	1454.59765625	-499.6720581054688	-26.46220207214355	1447.538330078125	-210.9798126220703	-43.52310562133789	998.81787109375	-506.505615234375	-20.0418529510498	998.7650146484376	-232.0702667236328	-6.926382541656494	944.5146484375	-486.4959106445312	-621.9727172851562	549.5391235351562	-370.7944641113281	5.698052406311035	958.1249389648438	-256.9774780273438	-158.1999664306641	898.6331176757812	-526.58935546875	-117.375114440918	874.6552124023438	-188.9114379882812	-169.7223815917969	1002.173156738281	-369.9042053222656	-163.3040161132812	665.0425415039062	-532.38134765625	-459.5950622558594	549.9292602539062	-473.5673828125	-235.3145599365234	689.7171630859375	-504.1300964355469	-187.0347595214844	568.6109008789062	-516.4697265625	335.3690795898438	139.9212951660156	-208.2051239013672	-365.3075866699219	558.3748168945312	-504.3291015625	-260.9368591308594	595.3994750976562	-491.16552734375	70.10950469970703	697.8870849609375	-196.0084686279297	-713.302001953125	308.5377502441406	-389.3517456054688	-2.615177392959595	666.3872680664062	-185.3437957763672	109.5421752929688	610.703125	-227.6998138427734	34.17162322998047	574.9254150390625	-211.3793487548828	-262.4032897949219	530.0586547851562	-508.8844909667969	89.4109115600586	524.5642700195312	-219.6194763183594	-355.0721435546875	476.0546569824219	-498.3233337402344	-453.6872253417969	468.4008178710938	-473.0254211425781	147.2982635498047	418.9131469726562	-215.8407592773438	-726.8015747070312	382.7050476074219	-446.2250366210938	66.7501220703125	390.3610534667969	-222.3962707519531	-647.1822509765625	546.235107421875	-343.1980285644531	177.2466278076172	320.4134216308594	-227.8692626953125	101.1413116455078	299.9329833984375	-233.4883422851562	-624.885009765625	496.3325805664062	-435.1380310058594	198.9760437011719	139.3543853759766	-249.7410430908203	398.6385803222656	202.9847564697266	-253.8991394042969	168.5975952148438	88.41191864013672	-311.5798034667969	200.6264038085938	75.08000183105469	-339.4012145996094	182.2757720947266	60.87410736083984	-287.8586730957031	-658.6599731445312	559.8355712890625	-395.9512329101562
